<svg xmlns="http://www.w3.org/2000/svg" xmlns:xlink="http://www.w3.org/1999/xlink" version="1.1" x="0px" y="0px" viewBox="206 206 100 125" enable-background="new 206 206 100 100" xml:space="preserve"><path d="M303.345,235.788c0-1.716-1.396-3.112-3.111-3.112s-3.111,1.396-3.111,3.112c0,1.448,0.995,2.665,2.338,3.01v8.302h-15.387  c-3.177-4.185-6.377-4.94-8.822-4.617c-2.229-2.841-5.534-6.171-9.734-7.924v-13.253h6.167c0.341,1.23,1.467,2.138,2.804,2.138  c1.606,0,2.913-1.307,2.913-2.913c0-1.605-1.307-2.913-2.913-2.913c-1.337,0-2.463,0.908-2.804,2.138h-6.941  c-0.427,0-0.774,0.347-0.774,0.775v13.47c-1.979-0.604-4.134-0.84-6.448-0.521v-12.282c1.231-0.34,2.138-1.467,2.138-2.805  c0-1.606-1.306-2.912-2.911-2.912c-1.606,0-2.913,1.306-2.913,2.912c0,1.337,0.907,2.464,2.137,2.804v12.575  c-2.093,0.502-4.307,1.464-6.628,3.01v-21.246c0-0.428-0.347-0.774-0.775-0.774h-8.25c-0.34-1.231-1.467-2.138-2.805-2.138  c-1.606,0-2.912,1.307-2.912,2.913c0,1.605,1.306,2.912,2.912,2.912c1.338,0,2.465-0.907,2.805-2.138h7.476v20.31  c-0.998-0.413-2.108-0.713-3.313-0.793c-3.254-0.219-6.429,1.197-9.436,4.204c-1.349,1.349-2.256,2.688-2.727,4.006  c-1.296,0.346-2.899,0.869-4.464,1.63h-9.85v-6.871c1.341-0.346,2.336-1.562,2.336-3.009c0-1.716-1.396-3.112-3.112-3.112  c-1.715,0-3.111,1.396-3.111,3.112c0,1.448,0.996,2.665,2.338,3.01v7.645c0,0.428,0.346,0.774,0.774,0.774h8.048  c-1.361,1.02-2.499,2.294-3.096,3.882c-0.391,1.041-0.528,2.146-0.415,3.311H217.9c-0.345-1.341-1.562-2.337-3.01-2.337  c-1.716,0-3.111,1.396-3.111,3.111s1.396,3.112,3.111,3.112c1.447,0,2.664-0.995,3.01-2.336h4.158  c0.366,1.343,1.038,2.756,2.014,4.234c-0.492,0.926-0.901,1.98-1.124,3.156h-11.18c-0.428,0-0.775,0.347-0.775,0.774v9.076  c-1.342,0.346-2.338,1.563-2.338,3.011c0,1.715,1.396,3.111,3.112,3.111c1.715,0,3.111-1.396,3.111-3.111  c0-1.447-0.995-2.664-2.336-3.01v-8.302h10.23c-0.123,3.248,1.244,7.243,5.806,11.806c3.852,3.851,7.808,5.804,11.761,5.804  c0.015,0,0.03,0,0.044,0c2.366-0.009,4.424-0.72,6.099-1.64v9.823h-6.166c-0.34-1.23-1.467-2.139-2.805-2.139  c-1.605,0-2.912,1.307-2.912,2.913c0,1.605,1.306,2.912,2.912,2.912c1.337,0,2.464-0.907,2.805-2.137h6.94  c0.428,0,0.774-0.347,0.774-0.774v-11.573c0.813-0.58,1.491-1.174,2.019-1.688c0.248,0.002,0.5,0.004,0.758,0.004  c1.14,0,2.38-0.028,3.672-0.1V290.8c-1.23,0.341-2.138,1.467-2.138,2.804c0,1.606,1.307,2.913,2.913,2.913  c1.606,0,2.912-1.307,2.912-2.913c0-1.337-0.907-2.463-2.137-2.804v-12.794c2.195-0.182,4.477-0.504,6.628-1.044v19.5  c0,0.428,0.347,0.775,0.774,0.775h8.253c0.341,1.229,1.467,2.136,2.803,2.136c1.606,0,2.913-1.307,2.913-2.912  c0-1.606-1.307-2.913-2.913-2.913c-1.337,0-2.464,0.908-2.804,2.14h-7.478v-19.16c2.647-0.831,4.99-2.046,6.568-3.81  c0.951-1.063,1.579-2.27,1.883-3.606c3.404-0.061,8.37-0.577,11.899-2.78h9.442v6.868c-0.534,0.137-1.025,0.41-1.426,0.811  c-0.587,0.588-0.911,1.37-0.911,2.201c0,1.715,1.396,3.11,3.111,3.11s3.111-1.396,3.111-3.11c0-1.448-0.995-2.664-2.337-3.011  v-7.644c0-0.428-0.346-0.774-0.774-0.774h-8.282c0.398-0.414,0.758-0.864,1.066-1.359c1.028-1.646,1.407-3.597,1.141-5.834h5.402  c0.346,1.341,1.562,2.336,3.01,2.336c1.715,0,3.111-1.396,3.111-3.111c0-1.715-1.396-3.111-3.111-3.111  c-1.448,0-2.664,0.996-3.01,2.337h-5.681c-0.322-1.369-0.86-2.832-1.615-4.387c-0.547-1.126-1.102-2.122-1.66-3.003h15.09  c0.427,0,0.774-0.347,0.774-0.775v-9.077C302.351,238.451,303.345,237.235,303.345,235.788z M274.488,219.169  c0.753,0,1.363,0.611,1.363,1.363c0,0.752-0.61,1.363-1.363,1.363c-0.751,0-1.362-0.611-1.362-1.363  C273.125,219.78,273.737,219.169,274.488,219.169z M255.383,218.394c0-0.751,0.611-1.363,1.364-1.363  c0.751,0,1.362,0.611,1.362,1.363s-0.611,1.363-1.362,1.363C255.994,219.757,255.383,219.145,255.383,218.394z M237.511,216.9  c-0.751,0-1.362-0.611-1.362-1.363c0-0.752,0.611-1.364,1.362-1.364c0.752,0,1.364,0.612,1.364,1.364  C238.875,216.289,238.263,216.9,237.511,216.9z M215.664,235.788c0-0.862,0.701-1.563,1.562-1.563c0.862,0,1.563,0.702,1.563,1.563  c0,0.859-0.697,1.558-1.556,1.562c-0.002,0-0.004,0-0.006,0s-0.004,0-0.006,0C216.362,237.346,215.664,236.647,215.664,235.788z   M214.89,256.747c-0.861,0-1.563-0.701-1.563-1.563s0.701-1.563,1.563-1.563s1.562,0.701,1.562,1.563  S215.751,256.747,214.89,256.747z M213.329,276.211c0,0.861-0.701,1.562-1.562,1.562s-1.562-0.7-1.562-1.562  s0.701-1.563,1.562-1.563S213.329,275.349,213.329,276.211z M237.511,292.83c-0.751,0-1.362-0.612-1.362-1.363  s0.611-1.363,1.362-1.363c0.752,0,1.364,0.612,1.364,1.363S238.263,292.83,237.511,292.83z M256.617,293.604  c0,0.752-0.611,1.363-1.363,1.363s-1.363-0.611-1.363-1.363c0-0.75,0.609-1.36,1.358-1.362c0.001,0,0.003,0,0.005,0s0.003,0,0.005,0  C256.009,292.244,256.617,292.854,256.617,293.604z M274.488,295.097c0.753,0,1.363,0.612,1.363,1.363  c0,0.752-0.61,1.363-1.363,1.363c-0.751,0-1.362-0.611-1.362-1.363C273.125,295.71,273.737,295.097,274.488,295.097z   M296.336,276.211c0,0.861-0.701,1.562-1.563,1.562s-1.563-0.7-1.563-1.562c0-0.418,0.162-0.811,0.458-1.105  c0.295-0.295,0.688-0.457,1.104-0.457C295.635,274.648,296.336,275.349,296.336,276.211z M297.111,255.252  c0.861,0,1.563,0.701,1.563,1.563c0,0.861-0.701,1.562-1.563,1.562c-0.86,0-1.562-0.699-1.563-1.561v-0.001c0-0.001,0-0.001,0-0.002  C295.548,255.952,296.25,255.252,297.111,255.252z M286.244,262.602c-2.574,4.12-9.668,4.86-13.384,4.955  c0.037-0.888-0.05-1.825-0.264-2.808c-0.165-0.761-0.413-1.458-0.74-2.094c5.147-2.595,6.979-6.392,7.059-6.56  c0.182-0.386,0.016-0.846-0.37-1.028c-0.387-0.182-0.848-0.017-1.031,0.369c-0.018,0.036-1.744,3.567-6.512,5.915  c-0.573-0.697-1.277-1.287-2.111-1.767c-3.905-2.24-9.763-1.512-13.328-0.747c-1.809-1.378-3.836-3.546-3.919-6.375  c0.001-0.025-0.002-0.051-0.003-0.076c-0.017-0.774,0.121-1.583,0.41-2.405c0.142-0.403-0.07-0.846-0.475-0.987  c-0.403-0.142-0.845,0.07-0.987,0.474c-0.198,0.563-0.335,1.125-0.416,1.68c-1.796-1.071-5.337-3.54-5.759-6.574  c-0.059-0.424-0.451-0.719-0.874-0.66c-0.424,0.059-0.719,0.45-0.661,0.874c0.59,4.237,5.719,7.294,7.237,8.112  c0.217,2.73,1.851,4.872,3.562,6.393c-0.692,0.187-1.128,0.327-1.21,0.354c-0.013,0.004-0.025,0.009-0.038,0.013  c-0.081,0.031-5.384,2.045-10.351,2.074c-0.049-0.005-0.098-0.005-0.148,0c-2.531-0.005-4.96-0.536-6.548-2.124  c-0.302-0.302-0.793-0.302-1.095,0.001c-0.303,0.302-0.303,0.793,0,1.095c1.83,1.831,4.484,2.497,7.222,2.568  c0.518,1.169,1.806,4.571,0.441,6.816c-0.916,1.508-2.929,2.272-5.983,2.272c-0.428,0-0.774,0.346-0.774,0.773  s0.347,0.775,0.774,0.775c3.635,0,6.094-1.017,7.31-3.021c0.295-0.488,0.496-1.007,0.627-1.537c1.662-0.495,8-2.138,12.485,0.091  c0.111,0.055,0.229,0.081,0.345,0.081c0.284,0,0.559-0.158,0.693-0.431c0.191-0.383,0.034-0.849-0.349-1.038  c-4.564-2.267-10.526-1.04-12.977-0.374c0.007-1.72-0.512-3.386-0.924-4.436c4.761-0.254,9.32-1.955,9.786-2.134  c0.469-0.149,10.023-3.127,15.153-0.185c0.829,0.477,1.489,1.075,1.989,1.807c0.003,0.006,0.007,0.012,0.011,0.017  c0.45,0.663,0.771,1.435,0.964,2.326c0.239,1.104,0.297,2.118,0.178,3.053c-0.021,0.068-0.034,0.139-0.034,0.215  c0,0.006,0.002,0.01,0.002,0.016c-0.203,1.248-0.736,2.35-1.608,3.324c-1.463,1.636-3.73,2.75-6.313,3.502  c-0.063,0.01-0.124,0.026-0.182,0.051c-7.767,2.195-18.252,1.17-18.393,1.156c-0.425-0.044-0.806,0.265-0.85,0.69  c-0.043,0.426,0.266,0.807,0.692,0.85c0.19,0.021,1.393,0.138,3.203,0.214c-0.291,0.231-0.607,0.466-0.946,0.694  c-0.004,0.003-0.008,0.006-0.012,0.008c-1.648,1.111-3.842,2.1-6.441,2.109c-0.013,0-0.025,0-0.038,0  c-3.527,0-7.116-1.8-10.666-5.35c-5.293-5.294-6.686-10.502-4.028-15.062c1.537-2.626,3.863-4.107,3.891-4.125  c0.363-0.227,0.473-0.704,0.247-1.067c-0.227-0.363-0.704-0.474-1.068-0.247c-0.095,0.059-2.077,1.313-3.737,3.626  c-1.645-2.707-2.102-5.089-1.349-7.092c1.216-3.234,5.337-5.009,8.318-5.894c-0.04,0.602,0.014,1.198,0.166,1.789  c1.36,5.322,10.104,7.94,10.476,8.049c0.073,0.021,0.146,0.031,0.218,0.031c0.335,0,0.644-0.219,0.743-0.557  c0.12-0.411-0.115-0.841-0.525-0.961c-0.083-0.024-8.271-2.478-9.411-6.948c-0.473-1.851,0.377-3.879,2.524-6.026  c2.674-2.674,5.441-3.938,8.226-3.754c4.53,0.297,7.692,4.348,7.729,4.396c0.259,0.339,0.745,0.404,1.085,0.146  c0.34-0.26,0.405-0.746,0.146-1.086c-0.081-0.105-1.178-1.519-3.03-2.819c2.266-1.494,4.418-2.395,6.454-2.824  c0.099,0,0.192-0.02,0.278-0.055c2.615-0.499,5.032-0.219,7.24,0.575c0.121,0.095,0.27,0.154,0.432,0.163  c3.542,1.4,6.523,4.114,8.892,7.019c-2.787,0.98-5.048,3.323-6.349,5.407c-6.536-1.679-7.193-5.054-7.222-5.22  c-0.063-0.419-0.455-0.71-0.874-0.65c-0.424,0.06-0.719,0.451-0.659,0.875c0.026,0.185,0.709,4.389,8.006,6.397  c-0.358,0.812-0.647,1.782-0.431,2.514c0.121,0.411,0.552,0.645,0.963,0.524c0.409-0.121,0.645-0.552,0.523-0.962  c-0.065-0.219,0.076-1.126,0.928-2.529c1.228-2.025,3.69-4.591,6.594-5.161c3.784-0.74,7.36,2.113,10.341,8.248  C287.517,256.663,287.797,260.118,286.244,262.602z M300.234,237.35c-0.861,0-1.563-0.701-1.563-1.562  c0-0.862,0.701-1.563,1.563-1.563s1.563,0.702,1.563,1.563S301.095,237.35,300.234,237.35z"/><text x="206" y="321" fill="#000000" font-size="5px" font-weight="bold" font-family="'Helvetica Neue', Helvetica, Arial-Unicode, Arial, Sans-serif">Created by Iconika</text><text x="206" y="326" fill="#000000" font-size="5px" font-weight="bold" font-family="'Helvetica Neue', Helvetica, Arial-Unicode, Arial, Sans-serif">from the Noun Project</text></svg>